PathFileType	4	(X/Y/Z)	C:\Users\xlb\Desktop\20210112\20210112\bx_n_10_902.trc
DataRate	CameraRate	NumFrames	NumMarkers	Units	OrigDataRate	OrigDataStartFrame	OrigNumFrames
50.00	50.00	       4	43	mm	50.00	61	       484
Frame#	Time	Top.Head			R.Acromium			L.Acromium			Sternum			R.ASIS			L.ASIS			V.Sacral			R.Thigh.Upper			R.Thigh.Front			R.Thigh.Rear			R.Knee.Lat			R.Knee.Med			R.Shank.Upper			R.Shank.Front			R.Shank.Rear			R.Ankle.Lat			R.Midfoot.Lat			R.Toe.Lat			R.Toe.Tip			R.Toe.Med			R.Ankle.Med			R.Midfoot.Sup			R.Heel			L.Thigh.Upper			L.Thigh.Front			L.Thigh.Rear			L.Knee.Lat			L.Knee.Med			L.Shank.Upper			L.Shank.Front			L.Shank.Rear			L.Ankle.Lat			L.Midfoot.Lat			L.Toe.Lat			L.Toe.Tip			L.Toe.Med			L.Ankle.Med			L.Midfoot.Sup			L.Heel			origin1 front left			origin2 front right			origin 3 back right			origin 4 back leftt			
		X1	Y1	Z1	X2	Y2	Z2	X3	Y3	Z3	X4	Y4	Z4	X5	Y5	Z5	X6	Y6	Z6	X7	Y7	Z7	X8	Y8	Z8	X9	Y9	Z9	X10	Y10	Z10	X11	Y11	Z11	X12	Y12	Z12	X13	Y13	Z13	X14	Y14	Z14	X15	Y15	Z15	X16	Y16	Z16	X17	Y17	Z17	X18	Y18	Z18	X19	Y19	Z19	X20	Y20	Z20	X21	Y21	Z21	X22	Y22	Z22	X23	Y23	Z23	X24	Y24	Z24	X25	Y25	Z25	X26	Y26	Z26	X27	Y27	Z27	X28	Y28	Z28	X29	Y29	Z29	X30	Y30	Z30	X31	Y31	Z31	X32	Y32	Z32	X33	Y33	Z33	X34	Y34	Z34	X35	Y35	Z35	X36	Y36	Z36	X37	Y37	Z37	X38	Y38	Z38	X39	Y39	Z39	X40	Y40	Z40	X41	Y41	Z41	X42	Y42	Z42	X43	Y43	Z43	

61	1.200	-155.40906	90.62761	1432.79895	-384.22568	-80.25679	1240.71497	-392.88776	258.64587	1249.21362	-523.52228	93.05106	1095.35254	-747.74036	-7.44251	1002.23694	-737.53040	237.70676	1024.64392	-922.59131	98.63074	1093.35400	-825.20569	-71.21001	864.58264	-733.18921	-7.84490	806.83258	-818.99213	-62.36310	748.11633	-802.49506	-32.19202	610.90204	-778.14459	78.80164	568.61426	-799.49268	-29.79661	562.83850	-737.43439	20.91780	525.71027	-823.75665	-44.25064	476.86517	-761.28119	-20.72318	203.99594	-648.71710	-68.42271	161.03716	-606.83789	-75.68309	157.19717	-548.35559	-27.15224	162.63519	-596.82068	26.14832	167.02325	-722.58545	67.63782	219.71716	-671.49219	52.11608	162.37753	-792.20013	39.16468	172.61589	-833.44507	292.93787	868.06561	-728.79779	211.94678	817.41193	-814.85815	283.37524	733.53809	-822.50201	256.77124	629.64563	-774.88623	146.63367	572.69666	-809.92987	250.86314	567.29565	-748.62628	208.62965	537.73932	-833.26263	263.85611	488.60226	-770.56641	231.45735	202.41817	-658.50366	299.27805	157.27560	-621.74243	307.07782	158.50714	-555.81134	254.45850	163.40398	-592.09430	219.08458	173.65678	-718.02917	158.01083	221.44220	-674.76721	174.76695	162.10968	-796.58252	182.53273	181.36327	-527.95923	303.86795	146.35156	-517.71057	-73.01234	143.01559	-875.86926	-78.59514	141.22401	-882.53442	296.04843	144.65166	
62	1.220	-149.35693	90.71919	1411.48779	-378.91400	-79.83650	1223.13403	-387.03882	257.28882	1231.59204	-523.23077	93.18802	1084.89746	-752.11346	-7.64146	998.92889	-741.31586	237.47830	1021.67633	-924.92816	98.11797	1094.21973	-829.69611	-71.50642	863.82178	-737.40491	-7.89047	806.53210	-822.56537	-62.91635	747.48053	-805.15131	-32.41251	610.46906	-780.46118	79.34159	568.62164	-801.82556	-30.08208	562.39117	-739.85260	20.87645	525.52539	-825.46735	-44.68442	476.30664	-761.29407	-20.86342	203.81221	-648.58911	-68.43583	160.99501	-606.73578	-75.66911	157.17824	-548.34784	-27.07590	162.51675	-596.87616	26.16982	166.96402	-722.97662	67.26318	219.71494	-671.55286	52.04201	162.59863	-792.20056	38.89396	172.52267	-837.97443	293.13376	867.49591	-733.36023	211.82962	816.94916	-818.45984	283.71469	732.89471	-825.39856	257.07852	629.09991	-777.74280	146.83464	572.44366	-812.46814	251.06108	566.80640	-751.09448	208.75749	537.64355	-835.29889	264.12216	487.99350	-770.81543	231.59525	202.19539	-658.50220	299.32199	157.23906	-621.73260	307.07312	158.51276	-555.91956	254.37025	163.40686	-592.20801	219.06978	173.60233	-718.30072	158.11757	221.64508	-674.91235	174.85806	162.18668	-796.66632	182.76196	181.24660	-527.89185	303.82483	146.33206	-517.69214	-73.03368	143.02791	-875.88501	-78.63293	141.23936	-882.54608	296.02173	144.65280	
63	1.240	-143.88336	90.89179	1390.27759	-373.94675	-79.37840	1205.44800	-381.46219	256.03220	1214.13208	-522.99414	93.31526	1074.67627	-756.18207	-7.93762	995.64465	-744.95276	237.29933	1018.59625	-927.04895	97.68832	1094.94263	-833.97565	-71.80841	863.04034	-741.48639	-7.81245	806.22180	-826.00055	-63.40581	746.82013	-807.73700	-32.68720	610.02216	-782.62720	79.87067	568.72571	-804.18549	-30.45285	561.97156	-742.25903	20.82537	525.24738	-827.19470	-45.04787	475.70645	-761.35345	-20.99095	203.56187	-648.49994	-68.46041	160.95334	-606.63336	-75.69843	157.21024	-548.35583	-26.99974	162.42987	-596.90045	26.15104	166.95816	-723.40961	66.84608	219.65627	-671.58173	52.00044	162.71150	-792.26031	38.59218	172.41002	-842.32642	293.32770	866.92603	-737.82361	211.65143	816.43787	-821.92749	284.10788	732.24384	-828.16412	257.46136	628.54688	-780.59113	147.03702	572.11066	-814.96887	251.26559	566.25385	-753.51385	208.90871	537.50146	-837.28510	264.47000	487.34589	-771.04706	231.68437	201.90352	-658.49652	299.35443	157.19867	-621.71246	307.05887	158.52562	-555.92120	254.23083	163.42943	-592.29858	219.05505	173.61644	-718.62024	158.35091	221.78346	-675.07440	175.00354	162.28697	-796.84247	183.11017	181.01384	-527.90167	303.81671	146.29111	-517.69452	-73.05898	143.02812	-875.89801	-78.66304	141.27126	-882.57007	296.02588	144.67638	
64	1.260	-138.94598	91.10346	1369.19983	-369.31137	-78.84673	1187.79211	-376.18631	254.80373	1196.91528	-522.81128	93.43275	1064.68945	-759.99530	-8.22854	992.38824	-748.42249	237.09857	1015.43921	-928.83075	97.30843	1095.48364	-837.95929	-72.09688	862.24750	-745.41907	-7.65020	805.86060	-829.39197	-63.80508	746.15027	-810.30261	-32.94856	609.55585	-784.68231	80.29535	568.86609	-806.62909	-30.80028	561.58276	-744.61639	20.67369	524.94995	-829.04736	-45.25292	475.07455	-761.45721	-21.05729	203.26590	-648.47070	-68.51254	160.93040	-606.59052	-75.76720	157.26729	-548.36877	-26.94383	162.43159	-596.86676	26.07462	167.02135	-723.81549	66.47551	219.56181	-671.57568	52.03077	162.74649	-792.33148	38.37121	172.30727	-846.54358	293.49954	866.38885	-742.09076	211.40874	815.86969	-825.29272	284.56952	731.60327	-830.82654	257.84714	627.97577	-783.38702	147.20143	571.71722	-817.38477	251.47293	565.68549	-755.87756	209.04800	537.30701	-839.18170	264.87631	486.72241	-771.25330	231.80269	201.61324	-658.50183	299.39798	157.15666	-621.67719	307.01938	158.53326	-555.88733	254.07028	163.43074	-592.36493	219.05353	173.68495	-718.98297	158.69556	221.85037	-675.20508	175.18893	162.41359	-797.08527	183.55928	180.73706	-527.96710	303.83353	146.25082	-517.71326	-73.09254	143.01675	-875.90253	-78.66972	141.30499	-882.58972	296.04187	144.69588	
